HIERARCHY
ROOT joint_Root
{
	OFFSET 0.0 0.0 0.0
	CHANNELS 6 Xposition Yposition Zposition Zrotation Xrotation Yrotation 
	JOINT Hips
	{
		OFFSET 4.5925 91.4895 -427.239
		CHANNELS 6 Xposition Yposition Zposition Zrotation Xrotation Yrotation 
		JOINT Spine
		{
			OFFSET 15.7357 0.0 0.0
			CHANNELS 6 Xposition Yposition Zposition Zrotation Xrotation Yrotation 
			JOINT Chest
			{
				OFFSET 8.98455 -0.406207 0.0
				CHANNELS 6 Xposition Yposition Zposition Zrotation Xrotation Yrotation 
				JOINT Neck
				{
					OFFSET 16.3773 0.0 0.0
					CHANNELS 6 Xposition Yposition Zposition Zrotation Xrotation Yrotation 
					JOINT Head
					{
						OFFSET 6.45672 0.0 0.0
						CHANNELS 6 Xposition Yposition Zposition Zrotation Xrotation Yrotation 
						End Site
						{
							OFFSET 0.0 0.0 0.0
						}
					}
				}
				JOINT Shoulder_L
				{
					OFFSET 12.9942 -0.242716 4.98039
					CHANNELS 6 Xposition Yposition Zposition Zrotation Xrotation Yrotation 
					JOINT UpperArm_L
					{
						OFFSET 5.34809 0.0 0.0
						CHANNELS 6 Xposition Yposition Zposition Zrotation Xrotation Yrotation 
						JOINT LowerArm_L
						{
							OFFSET 24.3286 1.87007e-05 0.0
							CHANNELS 6 Xposition Yposition Zposition Zrotation Xrotation Yrotation 
							JOINT Hand_L
							{
								OFFSET 22.2916 0.0 0.0
								CHANNELS 6 Xposition Yposition Zposition Zrotation Xrotation Yrotation 
								End Site
								{
									OFFSET 0.0 0.0 0.0
								}
							}
						}
					}
				}
				JOINT Shoulder_R
				{
					OFFSET 12.9945 -0.242716 -4.98039
					CHANNELS 6 Xposition Yposition Zposition Zrotation Xrotation Yrotation 
					JOINT UpperArm_R
					{
						OFFSET -5.34813 0.0 0.0
						CHANNELS 6 Xposition Yposition Zposition Zrotation Xrotation Yrotation 
						JOINT LowerArm_R
						{
							OFFSET -24.3289 0.000322201 0.0
							CHANNELS 6 Xposition Yposition Zposition Zrotation Xrotation Yrotation 
							JOINT Hand_R
							{
								OFFSET -22.2915 -0.000108084 0.0
								CHANNELS 6 Xposition Yposition Zposition Zrotation Xrotation Yrotation 
								End Site
								{
									OFFSET 0.0 0.0 0.0
								}
							}
						}
					}
				}
			}
		}
		JOINT UpperLeg_L
		{
			OFFSET -2.19248 -6.46944 0.0
			CHANNELS 6 Xposition Yposition Zposition Zrotation Xrotation Yrotation 
			JOINT LowerLeg_L
			{
				OFFSET 39.0811 0.0 -1.23785e-05
				CHANNELS 6 Xposition Yposition Zposition Zrotation Xrotation Yrotation 
				JOINT Foot_L
				{
					OFFSET 40.9854 0.0 -1.26872e-05
					CHANNELS 6 Xposition Yposition Zposition Zrotation Xrotation Yrotation 
					JOINT Toes_L
					{
						OFFSET 11.7543 0.0 0.0
						CHANNELS 6 Xposition Yposition Zposition Zrotation Xrotation Yrotation 
						End Site
						{
							OFFSET 0.0 0.0 0.0
						}
					}
				}
			}
		}
		JOINT UpperLeg_R
		{
			OFFSET -2.19251 6.46944 0.0
			CHANNELS 6 Xposition Yposition Zposition Zrotation Xrotation Yrotation 
			JOINT LowerLeg_R
			{
				OFFSET -39.0811 -0.00228153 -0.0401928
				CHANNELS 6 Xposition Yposition Zposition Zrotation Xrotation Yrotation 
				JOINT Foot_R
				{
					OFFSET -40.9854 0.0 0.0
					CHANNELS 6 Xposition Yposition Zposition Zrotation Xrotation Yrotation 
					JOINT Toes_R
					{
						OFFSET -11.7543 0.0 0.0
						CHANNELS 6 Xposition Yposition Zposition Zrotation Xrotation Yrotation 
						End Site
						{
							OFFSET 0.0 0.0 0.0
						}
					}
				}
			}
		}
	}
}
MOTION
Frames:	4
Frame Time:	0.0333333
0.000000 0.000000 0.000000 0.000000 0.000000 -0.000000 0.802258 90.116900 -3.305670 88.751200 -4.825630 11.490900 15.735700 0.000005 -0.000001 89.641700 77.715000 -89.804700 8.984550 -0.406207 -0.000000 16.803300 -0.163966 -0.302279 16.377300 -0.000001 -0.000001 4.525490 -2.048810 0.826280 6.456720 -0.000001 -0.000000 -4.695220 -0.998661 1.082540 12.994200 -0.242716 4.980390 -91.055200 5.585570 -79.284100 5.348090 -0.000007 -0.000001 -57.446200 35.488700 -28.872300 24.328600 0.000019 0.000005 10.697400 23.984000 -24.925600 22.291600 -0.000001 0.000005 10.589100 5.229270 1.974360 12.994500 -0.242716 -4.980390 89.399100 9.741570 -86.453300 -5.348130 -0.000001 -0.000004 -59.917000 31.980100 -22.323400 -24.328900 0.000322 -0.000009 3.111310 6.856120 -24.487800 -22.291500 -0.000108 -0.000004 16.464700 5.365370 -1.843710 -2.192480 -6.469440 -0.000000 -174.300000 -13.907400 -2.981360 39.081100 -0.000007 -0.000012 -0.186208 0.259258 35.687500 40.985400 -0.000006 -0.000013 0.752478 3.434010 -70.889300 11.754300 -0.000000 0.000003 -0.000091 -0.000947 -16.614000 -2.192510 6.469440 -0.000001 174.562000 18.244900 177.911000 -39.081100 -0.002282 -0.040193 -0.123344 0.184613 34.448300 -40.985400 0.000008 0.000006 4.717590 13.531000 -70.867200 -11.754300 -0.000006 -0.000006 -0.002516 -0.035004 -17.996600
0.000000 0.000000 0.000000 0.000000 0.000000 -0.000000 0.784423 90.115600 -3.316200 88.756500 -4.808450 11.508100 15.735700 0.000005 -0.000001 89.633300 77.674900 -89.797000 8.984550 -0.406207 -0.000000 16.883500 -0.168181 -0.303023 16.377300 -0.000001 -0.000001 4.400340 -2.070090 0.866196 6.456720 -0.000001 -0.000000 -4.726000 -0.985320 1.055520 12.994200 -0.242716 4.980390 -91.077700 5.662690 -79.206600 5.348090 -0.000007 -0.000001 -57.963800 34.659600 -28.061700 24.328600 0.000019 0.000005 11.547500 23.582900 -27.053200 22.291600 -0.000001 0.000005 11.200100 5.224380 2.100590 12.994500 -0.242716 -4.980390 89.373400 9.833960 -86.335900 -5.348130 -0.000001 -0.000004 -60.062700 31.211600 -21.962100 -24.328900 0.000322 -0.000009 3.607250 7.420890 -26.022600 -22.291500 -0.000108 -0.000004 16.880400 5.362140 -1.744730 -2.192480 -6.469440 -0.000000 -174.285000 -13.896100 -2.977090 39.081100 -0.000007 -0.000012 -0.189406 0.263667 35.692100 40.985400 -0.000006 -0.000013 0.745011 3.461490 -70.878600 11.754300 -0.000000 0.000003 -0.000103 -0.001059 -16.618100 -2.192510 6.469440 -0.000001 174.565000 18.248300 177.917000 -39.081100 -0.002282 -0.040193 -0.121878 0.182360 34.465300 -40.985400 0.000008 0.000006 4.761920 13.520400 -70.884300 -11.754300 -0.000006 -0.000006 -0.002667 -0.036780 -18.068800
0.000000 0.000000 0.000000 0.000000 0.000000 -0.000000 0.760606 90.115100 -3.324330 88.762000 -4.772850 11.513200 15.735700 0.000005 -0.000001 89.618500 77.643400 -89.777500 8.984550 -0.406207 -0.000000 16.946400 -0.174520 -0.292418 16.377300 -0.000001 -0.000001 4.310060 -2.112750 0.927373 6.456720 -0.000001 -0.000000 -4.795350 -1.014720 1.022870 12.994200 -0.242716 4.980390 -91.097400 5.692400 -79.069100 5.348090 -0.000007 -0.000001 -58.775600 33.451200 -27.095400 24.328600 0.000019 0.000005 12.451100 22.930900 -29.540300 22.291600 -0.000001 0.000005 11.718100 5.229950 1.956970 12.994500 -0.242716 -4.980390 89.343000 9.880830 -86.176900 -5.348130 -0.000001 -0.000004 -60.222200 30.310400 -21.522800 -24.328900 0.000322 -0.000009 4.223050 7.954680 -28.087900 -22.291500 -0.000108 -0.000004 17.398400 5.363840 -1.796720 -2.192480 -6.469440 -0.000000 -174.274000 -13.880400 -2.983800 39.081100 -0.000007 -0.000012 -0.187680 0.261255 35.693000 40.985400 -0.000006 -0.000013 0.737300 3.496820 -70.866700 11.754300 -0.000000 0.000003 -0.000109 -0.001103 -16.619800 -2.192510 6.469440 -0.000001 174.574000 18.246200 177.922000 -39.081100 -0.002282 -0.040193 -0.123247 0.184332 34.468700 -40.985400 0.000008 0.000006 4.743810 13.494800 -70.884000 -11.754300 -0.000006 -0.000006 -0.002632 -0.036364 -18.051900
0.000000 0.000000 0.000000 0.000000 0.000000 -0.000000 0.749417 90.114400 -3.325940 88.787500 -4.746640 11.564500 15.735700 0.000005 -0.000001 89.630500 77.600300 -89.792000 8.984550 -0.406207 -0.000000 17.032700 -0.170293 -0.297940 16.377300 -0.000001 -0.000001 4.266670 -2.162580 0.998374 6.456720 -0.000001 -0.000000 -4.869410 -1.045240 1.013130 12.994200 -0.242716 4.980390 -91.118100 5.716290 -78.913300 5.348090 -0.000007 -0.000001 -59.484300 32.172400 -26.338400 24.328600 0.000019 0.000005 13.392200 22.316200 -32.088000 22.291600 -0.000001 0.000005 12.280500 5.230160 1.951010 12.994500 -0.242716 -4.980390 89.310400 9.916370 -86.001700 -5.348130 -0.000001 -0.000004 -60.309500 29.310600 -21.111100 -24.328900 0.000322 -0.000009 4.917980 8.392050 -30.527500 -22.291500 -0.000108 -0.000004 17.840100 5.369870 -1.982400 -2.192480 -6.469440 -0.000000 -174.279000 -13.868700 -2.924640 39.081100 -0.000007 -0.000012 -0.189512 0.263936 35.679500 40.985400 -0.000006 -0.000013 0.734533 3.517420 -70.861000 11.754300 -0.000000 0.000003 -0.000096 -0.000993 -16.615700 -2.192510 6.469440 -0.000001 174.532000 18.287700 177.973000 -39.081100 -0.002282 -0.040193 -0.123070 0.183951 34.486500 -40.985400 0.000008 0.000006 4.763840 13.486700 -70.901000 -11.754300 -0.000006 -0.000006 -0.002565 -0.035574 -18.019700
